<svg width="31" height="31" viewBox="0 0 31 31" fill="none" xmlns="http://www.w3.org/2000/svg">
<path d="M9.37533 0.916504H21.6253C26.292 0.916504 30.0837 4.70817 30.0837 9.37484V21.6248C30.0837 23.8681 29.1925 26.0195 27.6063 27.6058C26.02 29.192 23.8686 30.0832 21.6253 30.0832H9.37533C4.70866 30.0832 0.916992 26.2915 0.916992 21.6248V9.37484C0.916992 7.13155 1.80814 4.98014 3.39438 3.39389C4.98063 1.80765 7.13204 0.916504 9.37533 0.916504ZM9.08366 3.83317C7.69127 3.83317 6.35592 4.38629 5.37135 5.37086C4.38678 6.35543 3.83366 7.69078 3.83366 9.08317V21.9165C3.83366 24.8186 6.18158 27.1665 9.08366 27.1665H21.917C23.3094 27.1665 24.6447 26.6134 25.6293 25.6288C26.6139 24.6443 27.167 23.3089 27.167 21.9165V9.08317C27.167 6.18109 24.8191 3.83317 21.917 3.83317H9.08366ZM23.1566 6.02067C23.64 6.02067 24.1037 6.21273 24.4456 6.55459C24.7874 6.89645 24.9795 7.36012 24.9795 7.84359C24.9795 8.32706 24.7874 8.79072 24.4456 9.13258C24.1037 9.47445 23.64 9.6665 23.1566 9.6665C22.6731 9.6665 22.2094 9.47445 21.8676 9.13258C21.5257 8.79072 21.3337 8.32706 21.3337 7.84359C21.3337 7.36012 21.5257 6.89645 21.8676 6.55459C22.2094 6.21273 22.6731 6.02067 23.1566 6.02067ZM15.5003 8.20817C17.4342 8.20817 19.2889 8.9764 20.6563 10.3439C22.0238 11.7113 22.792 13.566 22.792 15.4998C22.792 17.4337 22.0238 19.2884 20.6563 20.6558C19.2889 22.0233 17.4342 22.7915 15.5003 22.7915C13.5665 22.7915 11.7118 22.0233 10.3443 20.6558C8.97689 19.2884 8.20866 17.4337 8.20866 15.4998C8.20866 13.566 8.97689 11.7113 10.3443 10.3439C11.7118 8.9764 13.5665 8.20817 15.5003 8.20817ZM15.5003 11.1248C14.34 11.1248 13.2272 11.5858 12.4067 12.4062C11.5863 13.2267 11.1253 14.3395 11.1253 15.4998C11.1253 16.6602 11.5863 17.773 12.4067 18.5934C13.2272 19.4139 14.34 19.8748 15.5003 19.8748C16.6606 19.8748 17.7734 19.4139 18.5939 18.5934C19.4144 17.773 19.8753 16.6602 19.8753 15.4998C19.8753 14.3395 19.4144 13.2267 18.5939 12.4062C17.7734 11.5858 16.6606 11.1248 15.5003 11.1248Z" fill="#FDE9F4"/>
</svg>
