<svg width="31" height="31" viewBox="0 0 31 31" fill="none" xmlns="http://www.w3.org/2000/svg">
<path d="M15.5013 0.916504C23.5557 0.916504 30.0847 7.44546 30.0847 15.4998C30.0847 23.5542 23.5557 30.0832 15.5013 30.0832C12.9241 30.0876 10.3922 29.4056 8.16591 28.1071L0.923825 30.0832L2.89549 22.8382C1.59606 20.6112 0.913475 18.0782 0.917991 15.4998C0.917991 7.44546 7.44695 0.916504 15.5013 0.916504ZM10.5313 8.64567L10.2397 8.65734C10.0511 8.67033 9.86683 8.71986 9.69716 8.80317C9.53904 8.89287 9.39464 9.00485 9.26841 9.13567C9.09341 9.30046 8.99424 9.44338 8.88778 9.58192C8.34838 10.2832 8.05795 11.1443 8.06237 12.029C8.06528 12.7436 8.25195 13.4392 8.54362 14.0896C9.14007 15.405 10.1215 16.7978 11.4165 18.0884C11.7286 18.399 12.0349 18.7111 12.3645 19.0013C13.9736 20.4179 15.8911 21.4396 17.9644 21.985L18.7928 22.1119C19.0626 22.1265 19.3324 22.1061 19.6036 22.093C20.0283 22.0706 20.4429 21.9556 20.8184 21.7561C21.0092 21.6574 21.1956 21.5504 21.377 21.4353C21.377 21.4353 21.4387 21.3934 21.5592 21.304C21.7561 21.1582 21.8772 21.0546 22.0405 20.884C22.163 20.7576 22.2651 20.6108 22.3467 20.4436C22.4605 20.2059 22.5742 19.7523 22.6209 19.3746C22.6559 19.0859 22.6457 18.9284 22.6413 18.8307C22.6355 18.6746 22.5057 18.5128 22.3642 18.4442L21.5155 18.0636C21.5155 18.0636 20.2467 17.5109 19.4709 17.158C19.3897 17.1226 19.3027 17.1023 19.2142 17.0982C19.1145 17.0877 19.0136 17.0989 18.9185 17.1308C18.8234 17.1628 18.7362 17.2148 18.663 17.2834C18.6557 17.2805 18.558 17.3636 17.5036 18.6411C17.4431 18.7224 17.3597 18.7839 17.2642 18.8176C17.1686 18.8514 17.0651 18.8559 16.9669 18.8307C16.8719 18.8053 16.7788 18.7732 16.6884 18.7344C16.5076 18.6586 16.4449 18.6294 16.3209 18.5769C15.4836 18.2122 14.7086 17.7187 14.024 17.1142C13.8403 16.9538 13.6697 16.7788 13.4947 16.6096C12.921 16.0601 12.421 15.4386 12.0072 14.7605L11.9211 14.6219C11.8602 14.5283 11.8103 14.428 11.7724 14.323C11.717 14.1086 11.8613 13.9365 11.8613 13.9365C11.8613 13.9365 12.2157 13.5486 12.3805 13.3386C12.5409 13.1344 12.6765 12.9361 12.764 12.7946C12.9361 12.5175 12.9901 12.2332 12.8997 12.013C12.4913 11.0155 12.0694 10.0233 11.6338 9.0365C11.5478 8.84109 11.2926 8.70109 11.0607 8.67338C10.982 8.66366 10.9032 8.65588 10.8244 8.65005C10.6286 8.63881 10.4323 8.64076 10.2367 8.65588L10.5313 8.64567Z" fill="#FDE9F4"/>
</svg>
