<svg width="31" height="25" viewBox="0 0 31 25" fill="none" xmlns="http://www.w3.org/2000/svg">
<path d="M3.83366 24.1668C3.03158 24.1668 2.34519 23.8815 1.77449 23.3108C1.2038 22.7401 0.917964 22.0532 0.916992 21.2502V3.75016C0.916992 2.94808 1.20283 2.26169 1.77449 1.691C2.34616 1.1203 3.03255 0.834468 3.83366 0.833496H27.167C27.9691 0.833496 28.656 1.11933 29.2276 1.691C29.7993 2.26266 30.0846 2.94905 30.0837 3.75016V21.2502C30.0837 22.0522 29.7983 22.7391 29.2276 23.3108C28.6569 23.8825 27.97 24.1678 27.167 24.1668H3.83366ZM15.5003 13.9585L27.167 6.66683V3.75016L15.5003 11.0418L3.83366 3.75016V6.66683L15.5003 13.9585Z" fill="#FDE9F4"/>
</svg>
